<svg width="2269" height="535" viewBox="0 0 2269 535" fill="none" xmlns="http://www.w3.org/2000/svg">
<path d="M664.3 338.4C648.1 338.4 633.2 335.8 619.6 330.6C606 325.2 594.2 317.7 584.2 308.1C574.2 298.3 566.4 286.9 560.8 273.9C555.2 260.9 552.4 246.6 552.4 231C552.4 215.4 555.2 201.1 560.8 188.1C566.4 175.1 574.2 163.8 584.2 154.2C594.4 144.4 606.3 136.9 619.9 131.7C633.5 126.3 648.5 123.6 664.9 123.6C681.5 123.6 696.7 126.3 710.5 131.7C724.3 137.1 736 145.2 745.6 156L727 174.6C718.4 166.2 709 160.1 698.8 156.3C688.8 152.3 677.9 150.3 666.1 150.3C654.1 150.3 642.9 152.3 632.5 156.3C622.3 160.3 613.4 165.9 605.8 173.1C598.4 180.3 592.6 188.9 588.4 198.9C584.4 208.7 582.4 219.4 582.4 231C582.4 242.4 584.4 253.1 588.4 263.1C592.6 272.9 598.4 281.5 605.8 288.9C613.4 296.1 622.3 301.7 632.5 305.7C642.7 309.7 653.8 311.7 665.8 311.7C677 311.7 687.7 310 697.9 306.6C708.3 303 717.9 297.1 726.7 288.9L743.8 311.7C733.4 320.5 721.2 327.2 707.2 331.8C693.4 336.2 679.1 338.4 664.3 338.4ZM715 307.8V229.8H743.8V311.7L715 307.8ZM803.938 396C796.338 396 788.938 394.7 781.738 392.1C774.538 389.7 768.338 386.1 763.138 381.3L775.438 359.7C779.438 363.5 783.838 366.4 788.638 368.4C793.438 370.4 798.538 371.4 803.938 371.4C810.938 371.4 816.738 369.6 821.338 366C825.938 362.4 830.238 356 834.238 346.8L844.138 324.9L847.138 321.3L909.538 177H937.738L860.638 351.9C856.038 363.1 850.838 371.9 845.038 378.3C839.438 384.7 833.238 389.2 826.438 391.8C819.638 394.6 812.138 396 803.938 396ZM841.738 341.1L769.138 177H799.138L860.938 318.6L841.738 341.1ZM1163.52 175.5C1176.32 175.5 1187.62 178 1197.42 183C1207.22 188 1214.82 195.6 1220.22 205.8C1225.82 216 1228.62 228.9 1228.62 244.5V336H1199.82V247.8C1199.82 232.4 1196.22 220.8 1189.02 213C1181.82 205.2 1171.72 201.3 1158.72 201.3C1149.12 201.3 1140.72 203.3 1133.52 207.3C1126.32 211.3 1120.72 217.2 1116.72 225C1112.92 232.8 1111.02 242.5 1111.02 254.1V336H1082.22V247.8C1082.22 232.4 1078.62 220.8 1071.42 213C1064.42 205.2 1054.32 201.3 1041.12 201.3C1031.72 201.3 1023.42 203.3 1016.22 207.3C1009.02 211.3 1003.42 217.2 999.416 225C995.416 232.8 993.416 242.5 993.416 254.1V336H964.616V177H992.216V219.3L987.716 208.5C992.716 198.1 1000.42 190 1010.82 184.2C1021.22 178.4 1033.32 175.5 1047.12 175.5C1062.32 175.5 1075.42 179.3 1086.42 186.9C1097.42 194.3 1104.62 205.6 1108.02 220.8L1096.32 216C1101.12 203.8 1109.52 194 1121.52 186.6C1133.52 179.2 1147.52 175.5 1163.52 175.5ZM1365.91 337.8C1352.71 337.8 1340.61 334.8 1329.61 328.8C1318.81 322.6 1310.11 313.5 1303.51 301.5C1297.11 289.5 1293.91 274.5 1293.91 256.5C1293.91 238.5 1297.01 223.5 1303.21 211.5C1309.61 199.5 1318.21 190.5 1329.01 184.5C1340.01 178.5 1352.31 175.5 1365.91 175.5C1381.51 175.5 1395.31 178.9 1407.31 185.7C1419.31 192.5 1428.81 202 1435.81 214.2C1442.81 226.2 1446.31 240.3 1446.31 256.5C1446.31 272.7 1442.81 286.9 1435.81 299.1C1428.81 311.3 1419.31 320.8 1407.31 327.6C1395.31 334.4 1381.51 337.8 1365.91 337.8ZM1281.61 394.2V177H1309.21V219.9L1307.41 256.8L1310.41 293.7V394.2H1281.61ZM1363.51 312.6C1373.71 312.6 1382.81 310.3 1390.81 305.7C1399.01 301.1 1405.41 294.6 1410.01 286.2C1414.81 277.6 1417.21 267.7 1417.21 256.5C1417.21 245.1 1414.81 235.3 1410.01 227.1C1405.41 218.7 1399.01 212.2 1390.81 207.6C1382.81 203 1373.71 200.7 1363.51 200.7C1353.51 200.7 1344.41 203 1336.21 207.6C1328.21 212.2 1321.81 218.7 1317.01 227.1C1312.41 235.3 1310.11 245.1 1310.11 256.5C1310.11 267.7 1312.41 277.6 1317.01 286.2C1321.81 294.6 1328.21 301.1 1336.21 305.7C1344.41 310.3 1353.51 312.6 1363.51 312.6ZM1583.34 336V302.4L1581.84 296.1V238.8C1581.84 226.6 1578.24 217.2 1571.04 210.6C1564.04 203.8 1553.44 200.4 1539.24 200.4C1529.84 200.4 1520.64 202 1511.64 205.2C1502.64 208.2 1495.04 212.3 1488.84 217.5L1476.84 195.9C1485.04 189.3 1494.84 184.3 1506.24 180.9C1517.84 177.3 1529.94 175.5 1542.54 175.5C1564.34 175.5 1581.14 180.8 1592.94 191.4C1604.74 202 1610.64 218.2 1610.64 240V336H1583.34ZM1531.14 337.8C1519.34 337.8 1508.94 335.8 1499.94 331.8C1491.14 327.8 1484.34 322.3 1479.54 315.3C1474.74 308.1 1472.34 300 1472.34 291C1472.34 282.4 1474.34 274.6 1478.34 267.6C1482.54 260.6 1489.24 255 1498.44 250.8C1507.84 246.6 1520.44 244.5 1536.24 244.5H1586.64V265.2H1537.44C1523.04 265.2 1513.34 267.6 1508.34 272.4C1503.34 277.2 1500.84 283 1500.84 289.8C1500.84 297.6 1503.94 303.9 1510.14 308.7C1516.34 313.3 1524.94 315.6 1535.94 315.6C1546.74 315.6 1556.14 313.2 1564.14 308.4C1572.34 303.6 1578.24 296.6 1581.84 287.4L1587.54 307.2C1583.74 316.6 1577.04 324.1 1567.44 329.7C1557.84 335.1 1545.74 337.8 1531.14 337.8ZM1663.93 336V113.4H1692.73V336H1663.93ZM1800.69 336L1895.79 126H1925.49L2020.89 336H1989.39L1904.49 142.8H1916.49L1831.59 336H1800.69ZM1841.19 283.5L1849.29 259.5H1967.49L1976.19 283.5H1841.19ZM2052.21 336V126H2146.41C2170.61 126 2189.21 130.9 2202.21 140.7C2215.21 150.3 2221.71 163.5 2221.71 180.3C2221.71 191.7 2219.11 201.3 2213.91 209.1C2208.91 216.9 2202.11 222.9 2193.51 227.1C2184.91 231.3 2175.61 233.4 2165.61 233.4L2171.01 224.4C2183.01 224.4 2193.61 226.5 2202.81 230.7C2212.01 234.9 2219.31 241.1 2224.71 249.3C2230.11 257.3 2232.81 267.3 2232.81 279.3C2232.81 297.3 2226.01 311.3 2212.41 321.3C2199.01 331.1 2179.01 336 2152.41 336H2052.21ZM2082.21 311.7H2151.21C2167.81 311.7 2180.51 308.9 2189.31 303.3C2198.11 297.7 2202.51 288.9 2202.51 276.9C2202.51 264.7 2198.11 255.8 2189.31 250.2C2180.51 244.6 2167.81 241.8 2151.21 241.8H2079.51V217.5H2143.71C2158.91 217.5 2170.71 214.7 2179.11 209.1C2187.51 203.5 2191.71 195.1 2191.71 183.9C2191.71 172.7 2187.51 164.3 2179.11 158.7C2170.71 153.1 2158.91 150.3 2143.71 150.3H2082.21V311.7Z" fill="white"/>
<path d="M294.894 115.841C294.896 115.841 294.898 115.841 294.9 115.841C298.938 115.841 302.213 118.947 302.213 122.777C302.213 123.486 302.098 124.191 301.873 124.867L280.502 189.376L279.066 193.652C278.127 196.55 275.304 198.529 272.107 198.529C272.101 198.529 272.093 198.529 272.086 198.529H201.961C201.709 198.522 201.508 198.326 201.508 198.086C201.508 198.043 201.514 198 201.527 197.959L204.165 189.947C204.187 189.896 204.199 189.842 204.199 189.787C204.199 189.56 204.005 189.375 203.765 189.375C203.754 189.375 203.742 189.376 203.731 189.376H115.64C106.637 189.389 97.9724 192.666 91.4289 198.527L91.4301 198.529C82.12 206.907 76.8216 218.559 76.8041 230.738C76.8041 230.743 76.8041 230.754 76.8041 230.76C76.8041 241.174 80.6741 251.258 87.7225 259.237C89.6411 261.417 91.7844 263.427 94.1017 265.224C100.508 270.039 108.455 272.667 116.632 272.667C116.712 272.667 116.796 272.667 116.876 272.667L243.067 272.666C247.104 272.667 250.376 275.773 250.376 279.601C250.376 280.299 250.264 280.994 250.047 281.66L237.09 320.708C236.132 323.599 233.308 325.573 230.111 325.584H159.985C159.733 325.577 159.532 325.381 159.532 325.141C159.532 325.098 159.538 325.055 159.551 325.014L161.521 319.092C161.529 319.06 161.533 319.027 161.533 318.995C161.533 318.75 161.324 318.552 161.065 318.552C161.004 318.552 160.944 318.563 160.887 318.585C155.498 320.934 149.901 322.893 144.197 324.384C141.144 325.176 137.98 325.584 134.816 325.584C134.781 325.584 134.742 325.584 134.708 325.584H93.0995C93.054 325.584 93.01 325.584 92.966 325.584C89.7649 325.584 86.5685 325.18 83.4823 324.382C54.036 316.651 29.0674 298.012 14.2534 272.67C11.7056 268.363 9.44282 263.821 7.57481 259.205C2.58748 246.925 0 233.832 0 220.663C0 220.558 0 220.454 0 220.35C0.000389331 215.642 0.321949 210.923 0.964735 206.256C1.29878 203.627 1.76636 201.062 2.33401 198.497C3.00171 195.33 3.80336 192.353 4.77162 189.344C15.6916 154.938 43.9652 127.927 80.1418 117.291C83.4994 116.331 86.9878 115.84 90.4941 115.84C90.5463 115.84 90.6113 115.84 90.6639 115.84H294.894L294.894 115.841Z" fill="#6C9711"/>
<path d="M448.133 311.494C448.133 316.205 447.797 320.914 447.166 325.584C446.379 331.287 445.103 336.959 443.361 342.463C432.637 376.364 405.042 403.141 369.564 414.097C365.466 415.373 361.181 416.028 356.871 416.033H139.382C139.38 416.033 139.378 416.033 139.376 416.033C135.338 416.033 132.062 412.927 132.062 409.097C132.062 408.389 132.178 407.682 132.403 407.007L152.104 347.342C153.053 344.444 155.883 342.467 159.084 342.466L329.822 342.466C329.858 342.466 329.903 342.466 329.937 342.466C343.247 342.466 355.707 336.226 363.215 325.806L363.382 325.584C368.383 318.365 371.054 309.894 371.054 301.25C371.054 290.792 367.15 280.659 360.044 272.665V272.443C352.434 264.046 341.329 259.207 329.646 259.207C329.519 259.207 329.382 259.207 329.254 259.207L191.207 259.208C191.205 259.208 191.203 259.208 191.201 259.208C187.163 259.208 183.888 256.103 183.888 252.273C183.888 251.564 184.003 250.858 184.228 250.182L197.018 211.135C197.988 208.255 200.809 206.296 203.998 206.289L354.432 206.289C354.496 206.289 354.559 206.289 354.622 206.289C358.144 206.289 361.652 206.737 365.049 207.619C394.286 215.417 419.052 234.027 433.77 259.215C436.328 263.511 438.591 268.053 440.459 272.669C445.521 285.018 448.133 298.172 448.133 311.431C448.133 311.444 448.133 311.483 448.133 311.497V311.494L448.133 311.494Z" fill="#6C9711"/>
<path d="M158.37 534.035C184.978 534.035 206.548 513.578 206.548 488.344C206.548 463.109 184.978 442.652 158.37 442.652C131.762 442.652 110.191 463.109 110.191 488.344C110.191 513.578 131.762 534.035 158.37 534.035Z" fill="#6C9711"/>
<path d="M183.163 91.3827C209.771 91.3827 231.341 70.926 231.341 45.6914C231.341 20.4567 209.771 0 183.163 0C156.555 0 134.984 20.4567 134.984 45.6914C134.984 70.926 156.555 91.3827 183.163 91.3827Z" fill="#6C9711"/>
</svg>
